<mxfile host="app.diagrams.net" modified="2023-02-22T18:05:32.338Z" agent="5.0 (Windows NT 10.0; Win64; x64) AppleWebKit/537.36 (KHTML, like Gecko) Chrome/110.0.0.0 Safari/537.36" etag="lhMf7Gc23hfOvPQQPfuI" version="20.8.22" type="github">
  <diagram id="wFE0QG_FPsp0jaGvCLVb" name="Page-1">
    <mxGraphModel dx="2045" dy="637" grid="1" gridSize="10" guides="1" tooltips="1" connect="1" arrows="1" fold="1" page="1" pageScale="1" pageWidth="850" pageHeight="1100" math="0" shadow="0">
      <root>
        <mxCell id="0" />
        <mxCell id="1" parent="0" />
        <mxCell id="Gb53zYRQu_qerPP-6HfW-30" style="edgeStyle=orthogonalEdgeStyle;rounded=0;orthogonalLoop=1;jettySize=auto;html=1;entryX=0;entryY=0.5;entryDx=0;entryDy=0;fillColor=#dae8fc;strokeColor=#6c8ebf;" edge="1" parent="1" source="Gb53zYRQu_qerPP-6HfW-6" target="Gb53zYRQu_qerPP-6HfW-27">
          <mxGeometry relative="1" as="geometry">
            <Array as="points">
              <mxPoint x="520" y="139" />
              <mxPoint x="520" y="149" />
            </Array>
          </mxGeometry>
        </mxCell>
        <mxCell id="Gb53zYRQu_qerPP-6HfW-35" style="edgeStyle=orthogonalEdgeStyle;rounded=0;orthogonalLoop=1;jettySize=auto;html=1;exitX=1;exitY=0.5;exitDx=0;exitDy=0;fillColor=#dae8fc;strokeColor=#6c8ebf;" edge="1" parent="1" source="Gb53zYRQu_qerPP-6HfW-6" target="Gb53zYRQu_qerPP-6HfW-32">
          <mxGeometry relative="1" as="geometry" />
        </mxCell>
        <mxCell id="Gb53zYRQu_qerPP-6HfW-43" style="edgeStyle=orthogonalEdgeStyle;rounded=0;orthogonalLoop=1;jettySize=auto;html=1;exitX=1;exitY=0.5;exitDx=0;exitDy=0;fillColor=#dae8fc;strokeColor=#6c8ebf;" edge="1" parent="1" source="Gb53zYRQu_qerPP-6HfW-6" target="Gb53zYRQu_qerPP-6HfW-37">
          <mxGeometry relative="1" as="geometry">
            <Array as="points">
              <mxPoint x="440" y="139" />
              <mxPoint x="520" y="139" />
              <mxPoint x="520" y="629" />
            </Array>
          </mxGeometry>
        </mxCell>
        <mxCell id="Gb53zYRQu_qerPP-6HfW-44" style="edgeStyle=orthogonalEdgeStyle;rounded=0;orthogonalLoop=1;jettySize=auto;html=1;exitX=1;exitY=0.5;exitDx=0;exitDy=0;fillColor=#dae8fc;strokeColor=#6c8ebf;" edge="1" parent="1" source="Gb53zYRQu_qerPP-6HfW-6" target="Gb53zYRQu_qerPP-6HfW-39">
          <mxGeometry relative="1" as="geometry">
            <Array as="points">
              <mxPoint x="440" y="139" />
              <mxPoint x="520" y="139" />
              <mxPoint x="520" y="663" />
            </Array>
          </mxGeometry>
        </mxCell>
        <mxCell id="Gb53zYRQu_qerPP-6HfW-48" style="edgeStyle=orthogonalEdgeStyle;rounded=0;orthogonalLoop=1;jettySize=auto;html=1;exitX=1;exitY=0.5;exitDx=0;exitDy=0;entryX=0;entryY=0.5;entryDx=0;entryDy=0;fillColor=#dae8fc;strokeColor=#6c8ebf;" edge="1" parent="1" source="Gb53zYRQu_qerPP-6HfW-6" target="Gb53zYRQu_qerPP-6HfW-21">
          <mxGeometry relative="1" as="geometry">
            <Array as="points">
              <mxPoint x="440" y="139" />
              <mxPoint x="520" y="139" />
              <mxPoint x="520" y="370" />
              <mxPoint x="200" y="370" />
              <mxPoint x="200" y="579" />
            </Array>
          </mxGeometry>
        </mxCell>
        <mxCell id="Gb53zYRQu_qerPP-6HfW-6" value="PCI" style="swimlane;fontStyle=1;align=center;verticalAlign=top;childLayout=stackLayout;horizontal=1;startSize=26;horizontalStack=0;resizeParent=1;resizeParentMax=0;resizeLast=0;collapsible=1;marginBottom=0;fillStyle=auto;fillColor=#4D4D4D;" vertex="1" parent="1">
          <mxGeometry x="300" y="96" width="140" height="188" as="geometry" />
        </mxCell>
        <mxCell id="Gb53zYRQu_qerPP-6HfW-7" value="CLK: pcie_user_clk" style="text;strokeColor=none;fillColor=none;align=left;verticalAlign=top;spacingLeft=4;spacingRight=4;overflow=hidden;rotatable=0;points=[[0,0.5],[1,0.5]];portConstraint=eastwest;" vertex="1" parent="Gb53zYRQu_qerPP-6HfW-6">
          <mxGeometry y="26" width="140" height="26" as="geometry" />
        </mxCell>
        <mxCell id="Gb53zYRQu_qerPP-6HfW-8" value="" style="line;strokeWidth=1;fillColor=none;align=left;verticalAlign=middle;spacingTop=-1;spacingLeft=3;spacingRight=3;rotatable=0;labelPosition=right;points=[];portConstraint=eastwest;strokeColor=inherit;fillStyle=auto;" vertex="1" parent="Gb53zYRQu_qerPP-6HfW-6">
          <mxGeometry y="52" width="140" height="8" as="geometry" />
        </mxCell>
        <mxCell id="Gb53zYRQu_qerPP-6HfW-9" value="RST: pci_user_reset_n" style="text;strokeColor=none;fillColor=none;align=left;verticalAlign=top;spacingLeft=4;spacingRight=4;overflow=hidden;rotatable=0;points=[[0,0.5],[1,0.5]];portConstraint=eastwest;" vertex="1" parent="Gb53zYRQu_qerPP-6HfW-6">
          <mxGeometry y="60" width="140" height="26" as="geometry" />
        </mxCell>
        <mxCell id="Gb53zYRQu_qerPP-6HfW-50" value="" style="line;strokeWidth=1;fillColor=none;align=left;verticalAlign=middle;spacingTop=-1;spacingLeft=3;spacingRight=3;rotatable=0;labelPosition=right;points=[];portConstraint=eastwest;strokeColor=inherit;fillStyle=auto;" vertex="1" parent="Gb53zYRQu_qerPP-6HfW-6">
          <mxGeometry y="86" width="140" height="8" as="geometry" />
        </mxCell>
        <mxCell id="Gb53zYRQu_qerPP-6HfW-49" value="RST: ext_rst_n" style="text;strokeColor=none;fillColor=none;align=left;verticalAlign=top;spacingLeft=4;spacingRight=4;overflow=hidden;rotatable=0;points=[[0,0.5],[1,0.5]];portConstraint=eastwest;" vertex="1" parent="Gb53zYRQu_qerPP-6HfW-6">
          <mxGeometry y="94" width="140" height="26" as="geometry" />
        </mxCell>
        <mxCell id="Gb53zYRQu_qerPP-6HfW-54" value="" style="line;strokeWidth=1;fillColor=none;align=left;verticalAlign=middle;spacingTop=-1;spacingLeft=3;spacingRight=3;rotatable=0;labelPosition=right;points=[];portConstraint=eastwest;strokeColor=inherit;fillStyle=auto;" vertex="1" parent="Gb53zYRQu_qerPP-6HfW-6">
          <mxGeometry y="120" width="140" height="8" as="geometry" />
        </mxCell>
        <mxCell id="Gb53zYRQu_qerPP-6HfW-52" value="membus_clk" style="text;strokeColor=none;fillColor=none;align=left;verticalAlign=top;spacingLeft=4;spacingRight=4;overflow=hidden;rotatable=0;points=[[0,0.5],[1,0.5]];portConstraint=eastwest;" vertex="1" parent="Gb53zYRQu_qerPP-6HfW-6">
          <mxGeometry y="128" width="140" height="26" as="geometry" />
        </mxCell>
        <mxCell id="Gb53zYRQu_qerPP-6HfW-55" value="" style="line;strokeWidth=1;fillColor=none;align=left;verticalAlign=middle;spacingTop=-1;spacingLeft=3;spacingRight=3;rotatable=0;labelPosition=right;points=[];portConstraint=eastwest;strokeColor=inherit;fillStyle=auto;" vertex="1" parent="Gb53zYRQu_qerPP-6HfW-6">
          <mxGeometry y="154" width="140" height="8" as="geometry" />
        </mxCell>
        <mxCell id="Gb53zYRQu_qerPP-6HfW-53" value="membus_reset_n" style="text;strokeColor=none;fillColor=none;align=left;verticalAlign=top;spacingLeft=4;spacingRight=4;overflow=hidden;rotatable=0;points=[[0,0.5],[1,0.5]];portConstraint=eastwest;" vertex="1" parent="Gb53zYRQu_qerPP-6HfW-6">
          <mxGeometry y="162" width="140" height="26" as="geometry" />
        </mxCell>
        <mxCell id="Gb53zYRQu_qerPP-6HfW-19" style="edgeStyle=orthogonalEdgeStyle;rounded=0;orthogonalLoop=1;jettySize=auto;html=1;entryX=0;entryY=0.5;entryDx=0;entryDy=0;" edge="1" parent="1" source="Gb53zYRQu_qerPP-6HfW-15" target="Gb53zYRQu_qerPP-6HfW-7">
          <mxGeometry relative="1" as="geometry" />
        </mxCell>
        <mxCell id="Gb53zYRQu_qerPP-6HfW-15" value="pcie_ref_clk&lt;br style=&quot;border-color: var(--border-color);&quot;&gt;&lt;span style=&quot;&quot;&gt;PIN&lt;/span&gt;" style="shape=umlBoundary;whiteSpace=wrap;html=1;fillStyle=auto;fillColor=none;" vertex="1" parent="1">
          <mxGeometry x="150" y="95" width="100" height="80" as="geometry" />
        </mxCell>
        <mxCell id="Gb53zYRQu_qerPP-6HfW-20" value="reset_sync_top" style="swimlane;fontStyle=1;align=center;verticalAlign=top;childLayout=stackLayout;horizontal=1;startSize=26;horizontalStack=0;resizeParent=1;resizeParentMax=0;resizeLast=0;collapsible=1;marginBottom=0;fillStyle=auto;fillColor=#4D4D4D;" vertex="1" parent="1">
          <mxGeometry x="230" y="540" width="210" height="222" as="geometry" />
        </mxCell>
        <mxCell id="Gb53zYRQu_qerPP-6HfW-21" value="CLK: Reg_clk" style="text;strokeColor=none;fillColor=none;align=left;verticalAlign=top;spacingLeft=4;spacingRight=4;overflow=hidden;rotatable=0;points=[[0,0.5],[1,0.5]];portConstraint=eastwest;" vertex="1" parent="Gb53zYRQu_qerPP-6HfW-20">
          <mxGeometry y="26" width="210" height="26" as="geometry" />
        </mxCell>
        <mxCell id="Gb53zYRQu_qerPP-6HfW-22" value="" style="line;strokeWidth=1;fillColor=none;align=left;verticalAlign=middle;spacingTop=-1;spacingLeft=3;spacingRight=3;rotatable=0;labelPosition=right;points=[];portConstraint=eastwest;strokeColor=inherit;fillStyle=auto;" vertex="1" parent="Gb53zYRQu_qerPP-6HfW-20">
          <mxGeometry y="52" width="210" height="8" as="geometry" />
        </mxCell>
        <mxCell id="Gb53zYRQu_qerPP-6HfW-23" value="RST: ext_rst_n" style="text;strokeColor=none;fillColor=none;align=left;verticalAlign=top;spacingLeft=4;spacingRight=4;overflow=hidden;rotatable=0;points=[[0,0.5],[1,0.5]];portConstraint=eastwest;" vertex="1" parent="Gb53zYRQu_qerPP-6HfW-20">
          <mxGeometry y="60" width="210" height="26" as="geometry" />
        </mxCell>
        <mxCell id="Gb53zYRQu_qerPP-6HfW-46" value="" style="line;strokeWidth=1;fillColor=none;align=left;verticalAlign=middle;spacingTop=-1;spacingLeft=3;spacingRight=3;rotatable=0;labelPosition=right;points=[];portConstraint=eastwest;strokeColor=inherit;fillStyle=auto;" vertex="1" parent="Gb53zYRQu_qerPP-6HfW-20">
          <mxGeometry y="86" width="210" height="8" as="geometry" />
        </mxCell>
        <mxCell id="Gb53zYRQu_qerPP-6HfW-45" value="RST: pcie_user_reset_n" style="text;strokeColor=none;fillColor=none;align=left;verticalAlign=top;spacingLeft=4;spacingRight=4;overflow=hidden;rotatable=0;points=[[0,0.5],[1,0.5]];portConstraint=eastwest;" vertex="1" parent="Gb53zYRQu_qerPP-6HfW-20">
          <mxGeometry y="94" width="210" height="26" as="geometry" />
        </mxCell>
        <mxCell id="Gb53zYRQu_qerPP-6HfW-69" value="" style="line;strokeWidth=1;fillColor=none;align=left;verticalAlign=middle;spacingTop=-1;spacingLeft=3;spacingRight=3;rotatable=0;labelPosition=right;points=[];portConstraint=eastwest;strokeColor=inherit;fillStyle=auto;" vertex="1" parent="Gb53zYRQu_qerPP-6HfW-20">
          <mxGeometry y="120" width="210" height="8" as="geometry" />
        </mxCell>
        <mxCell id="Gb53zYRQu_qerPP-6HfW-68" value="EXT_CLK_40M" style="text;strokeColor=none;fillColor=none;align=left;verticalAlign=top;spacingLeft=4;spacingRight=4;overflow=hidden;rotatable=0;points=[[0,0.5],[1,0.5]];portConstraint=eastwest;" vertex="1" parent="Gb53zYRQu_qerPP-6HfW-20">
          <mxGeometry y="128" width="210" height="26" as="geometry" />
        </mxCell>
        <mxCell id="Gb53zYRQu_qerPP-6HfW-73" value="" style="line;strokeWidth=1;fillColor=none;align=left;verticalAlign=middle;spacingTop=-1;spacingLeft=3;spacingRight=3;rotatable=0;labelPosition=right;points=[];portConstraint=eastwest;strokeColor=inherit;fillStyle=auto;" vertex="1" parent="Gb53zYRQu_qerPP-6HfW-20">
          <mxGeometry y="154" width="210" height="8" as="geometry" />
        </mxCell>
        <mxCell id="Gb53zYRQu_qerPP-6HfW-71" value="CLK: sysclk" style="text;strokeColor=none;fillColor=none;align=left;verticalAlign=top;spacingLeft=4;spacingRight=4;overflow=hidden;rotatable=0;points=[[0,0.5],[1,0.5]];portConstraint=eastwest;" vertex="1" parent="Gb53zYRQu_qerPP-6HfW-20">
          <mxGeometry y="162" width="210" height="26" as="geometry" />
        </mxCell>
        <mxCell id="Gb53zYRQu_qerPP-6HfW-74" value="" style="line;strokeWidth=1;fillColor=none;align=left;verticalAlign=middle;spacingTop=-1;spacingLeft=3;spacingRight=3;rotatable=0;labelPosition=right;points=[];portConstraint=eastwest;strokeColor=inherit;fillStyle=auto;" vertex="1" parent="Gb53zYRQu_qerPP-6HfW-20">
          <mxGeometry y="188" width="210" height="8" as="geometry" />
        </mxCell>
        <mxCell id="Gb53zYRQu_qerPP-6HfW-72" value="master_reset_n_sync_to_sys_clk" style="text;strokeColor=none;fillColor=none;align=left;verticalAlign=top;spacingLeft=4;spacingRight=4;overflow=hidden;rotatable=0;points=[[0,0.5],[1,0.5]];portConstraint=eastwest;" vertex="1" parent="Gb53zYRQu_qerPP-6HfW-20">
          <mxGeometry y="196" width="210" height="26" as="geometry" />
        </mxCell>
        <mxCell id="Gb53zYRQu_qerPP-6HfW-26" value="CVB_MAIN_CONTROL" style="swimlane;fontStyle=1;align=center;verticalAlign=top;childLayout=stackLayout;horizontal=1;startSize=26;horizontalStack=0;resizeParent=1;resizeParentMax=0;resizeLast=0;collapsible=1;marginBottom=0;fillStyle=auto;fillColor=#4D4D4D;" vertex="1" parent="1">
          <mxGeometry x="590" y="110" width="140" height="60" as="geometry" />
        </mxCell>
        <mxCell id="Gb53zYRQu_qerPP-6HfW-27" value="CLK: Reg_clk" style="text;strokeColor=none;fillColor=none;align=left;verticalAlign=top;spacingLeft=4;spacingRight=4;overflow=hidden;rotatable=0;points=[[0,0.5],[1,0.5]];portConstraint=eastwest;" vertex="1" parent="Gb53zYRQu_qerPP-6HfW-26">
          <mxGeometry y="26" width="140" height="26" as="geometry" />
        </mxCell>
        <mxCell id="Gb53zYRQu_qerPP-6HfW-28" value="" style="line;strokeWidth=1;fillColor=none;align=left;verticalAlign=middle;spacingTop=-1;spacingLeft=3;spacingRight=3;rotatable=0;labelPosition=right;points=[];portConstraint=eastwest;strokeColor=inherit;fillStyle=auto;" vertex="1" parent="Gb53zYRQu_qerPP-6HfW-26">
          <mxGeometry y="52" width="140" height="8" as="geometry" />
        </mxCell>
        <mxCell id="Gb53zYRQu_qerPP-6HfW-31" value="Vin_HR_1/2:Video_In_HR" style="swimlane;fontStyle=1;align=center;verticalAlign=top;childLayout=stackLayout;horizontal=1;startSize=26;horizontalStack=0;resizeParent=1;resizeParentMax=0;resizeLast=0;collapsible=1;marginBottom=0;fillStyle=auto;fillColor=#4D4D4D;" vertex="1" parent="1">
          <mxGeometry x="600" y="310" width="160" height="120" as="geometry" />
        </mxCell>
        <mxCell id="Gb53zYRQu_qerPP-6HfW-32" value="CLK: Reg_clk" style="text;strokeColor=none;fillColor=none;align=left;verticalAlign=top;spacingLeft=4;spacingRight=4;overflow=hidden;rotatable=0;points=[[0,0.5],[1,0.5]];portConstraint=eastwest;" vertex="1" parent="Gb53zYRQu_qerPP-6HfW-31">
          <mxGeometry y="26" width="160" height="26" as="geometry" />
        </mxCell>
        <mxCell id="Gb53zYRQu_qerPP-6HfW-33" value="" style="line;strokeWidth=1;fillColor=none;align=left;verticalAlign=middle;spacingTop=-1;spacingLeft=3;spacingRight=3;rotatable=0;labelPosition=right;points=[];portConstraint=eastwest;strokeColor=inherit;fillStyle=auto;" vertex="1" parent="Gb53zYRQu_qerPP-6HfW-31">
          <mxGeometry y="52" width="160" height="8" as="geometry" />
        </mxCell>
        <mxCell id="Gb53zYRQu_qerPP-6HfW-34" value="CLK: sysclk" style="text;strokeColor=none;fillColor=none;align=left;verticalAlign=top;spacingLeft=4;spacingRight=4;overflow=hidden;rotatable=0;points=[[0,0.5],[1,0.5]];portConstraint=eastwest;" vertex="1" parent="Gb53zYRQu_qerPP-6HfW-31">
          <mxGeometry y="60" width="160" height="26" as="geometry" />
        </mxCell>
        <mxCell id="Gb53zYRQu_qerPP-6HfW-78" value="" style="line;strokeWidth=1;fillColor=none;align=left;verticalAlign=middle;spacingTop=-1;spacingLeft=3;spacingRight=3;rotatable=0;labelPosition=right;points=[];portConstraint=eastwest;strokeColor=inherit;fillStyle=auto;" vertex="1" parent="Gb53zYRQu_qerPP-6HfW-31">
          <mxGeometry y="86" width="160" height="8" as="geometry" />
        </mxCell>
        <mxCell id="Gb53zYRQu_qerPP-6HfW-77" value="RST: pci_user_reset_n" style="text;strokeColor=none;fillColor=none;align=left;verticalAlign=top;spacingLeft=4;spacingRight=4;overflow=hidden;rotatable=0;points=[[0,0.5],[1,0.5]];portConstraint=eastwest;" vertex="1" parent="Gb53zYRQu_qerPP-6HfW-31">
          <mxGeometry y="94" width="160" height="26" as="geometry" />
        </mxCell>
        <mxCell id="Gb53zYRQu_qerPP-6HfW-36" value="DispOut: Display_out" style="swimlane;fontStyle=1;align=center;verticalAlign=top;childLayout=stackLayout;horizontal=1;startSize=26;horizontalStack=0;resizeParent=1;resizeParentMax=0;resizeLast=0;collapsible=1;marginBottom=0;fillStyle=auto;fillColor=#4D4D4D;" vertex="1" parent="1">
          <mxGeometry x="600" y="590" width="160" height="86" as="geometry">
            <mxRectangle x="590" y="430" width="160" height="30" as="alternateBounds" />
          </mxGeometry>
        </mxCell>
        <mxCell id="Gb53zYRQu_qerPP-6HfW-37" value="CLK: Reg_clk" style="text;strokeColor=none;fillColor=none;align=left;verticalAlign=top;spacingLeft=4;spacingRight=4;overflow=hidden;rotatable=0;points=[[0,0.5],[1,0.5]];portConstraint=eastwest;" vertex="1" parent="Gb53zYRQu_qerPP-6HfW-36">
          <mxGeometry y="26" width="160" height="26" as="geometry" />
        </mxCell>
        <mxCell id="Gb53zYRQu_qerPP-6HfW-38" value="" style="line;strokeWidth=1;fillColor=none;align=left;verticalAlign=middle;spacingTop=-1;spacingLeft=3;spacingRight=3;rotatable=0;labelPosition=right;points=[];portConstraint=eastwest;strokeColor=inherit;fillStyle=auto;" vertex="1" parent="Gb53zYRQu_qerPP-6HfW-36">
          <mxGeometry y="52" width="160" height="8" as="geometry" />
        </mxCell>
        <mxCell id="Gb53zYRQu_qerPP-6HfW-39" value="CLK: arinc_clk" style="text;strokeColor=none;fillColor=none;align=left;verticalAlign=top;spacingLeft=4;spacingRight=4;overflow=hidden;rotatable=0;points=[[0,0.5],[1,0.5]];portConstraint=eastwest;" vertex="1" parent="Gb53zYRQu_qerPP-6HfW-36">
          <mxGeometry y="60" width="160" height="26" as="geometry" />
        </mxCell>
        <mxCell id="Gb53zYRQu_qerPP-6HfW-47" style="edgeStyle=orthogonalEdgeStyle;rounded=0;orthogonalLoop=1;jettySize=auto;html=1;exitX=1;exitY=0.5;exitDx=0;exitDy=0;entryX=0;entryY=0.5;entryDx=0;entryDy=0;fillColor=#d5e8d4;strokeColor=#82b366;" edge="1" parent="1" source="Gb53zYRQu_qerPP-6HfW-9" target="Gb53zYRQu_qerPP-6HfW-45">
          <mxGeometry relative="1" as="geometry">
            <Array as="points">
              <mxPoint x="480" y="169" />
              <mxPoint x="480" y="320" />
              <mxPoint x="180" y="320" />
              <mxPoint x="180" y="647" />
            </Array>
          </mxGeometry>
        </mxCell>
        <mxCell id="Gb53zYRQu_qerPP-6HfW-51" style="edgeStyle=orthogonalEdgeStyle;rounded=0;orthogonalLoop=1;jettySize=auto;html=1;entryX=-0.013;entryY=0.324;entryDx=0;entryDy=0;entryPerimeter=0;exitX=1;exitY=0.5;exitDx=0;exitDy=0;" edge="1" parent="1" source="Gb53zYRQu_qerPP-6HfW-23" target="Gb53zYRQu_qerPP-6HfW-49">
          <mxGeometry relative="1" as="geometry">
            <mxPoint x="400" y="340" as="sourcePoint" />
            <Array as="points">
              <mxPoint x="470" y="613" />
              <mxPoint x="470" y="490" />
              <mxPoint x="260" y="490" />
              <mxPoint x="260" y="198" />
            </Array>
          </mxGeometry>
        </mxCell>
        <mxCell id="Gb53zYRQu_qerPP-6HfW-56" value="PLL" style="swimlane;fontStyle=1;align=center;verticalAlign=top;childLayout=stackLayout;horizontal=1;startSize=26;horizontalStack=0;resizeParent=1;resizeParentMax=0;resizeLast=0;collapsible=1;marginBottom=0;fillStyle=auto;fillColor=#4D4D4D;" vertex="1" parent="1">
          <mxGeometry x="-170" y="340" width="140" height="188" as="geometry" />
        </mxCell>
        <mxCell id="Gb53zYRQu_qerPP-6HfW-57" value="refclk" style="text;strokeColor=none;fillColor=none;align=left;verticalAlign=top;spacingLeft=4;spacingRight=4;overflow=hidden;rotatable=0;points=[[0,0.5],[1,0.5]];portConstraint=eastwest;" vertex="1" parent="Gb53zYRQu_qerPP-6HfW-56">
          <mxGeometry y="26" width="140" height="26" as="geometry" />
        </mxCell>
        <mxCell id="Gb53zYRQu_qerPP-6HfW-58" value="" style="line;strokeWidth=1;fillColor=none;align=left;verticalAlign=middle;spacingTop=-1;spacingLeft=3;spacingRight=3;rotatable=0;labelPosition=right;points=[];portConstraint=eastwest;strokeColor=inherit;fillStyle=auto;" vertex="1" parent="Gb53zYRQu_qerPP-6HfW-56">
          <mxGeometry y="52" width="140" height="8" as="geometry" />
        </mxCell>
        <mxCell id="Gb53zYRQu_qerPP-6HfW-59" value="outclk_0: sysclk" style="text;strokeColor=none;fillColor=none;align=left;verticalAlign=top;spacingLeft=4;spacingRight=4;overflow=hidden;rotatable=0;points=[[0,0.5],[1,0.5]];portConstraint=eastwest;" vertex="1" parent="Gb53zYRQu_qerPP-6HfW-56">
          <mxGeometry y="60" width="140" height="26" as="geometry" />
        </mxCell>
        <mxCell id="Gb53zYRQu_qerPP-6HfW-60" value="" style="line;strokeWidth=1;fillColor=none;align=left;verticalAlign=middle;spacingTop=-1;spacingLeft=3;spacingRight=3;rotatable=0;labelPosition=right;points=[];portConstraint=eastwest;strokeColor=inherit;fillStyle=auto;" vertex="1" parent="Gb53zYRQu_qerPP-6HfW-56">
          <mxGeometry y="86" width="140" height="8" as="geometry" />
        </mxCell>
        <mxCell id="Gb53zYRQu_qerPP-6HfW-61" value="1" style="text;strokeColor=none;fillColor=none;align=left;verticalAlign=top;spacingLeft=4;spacingRight=4;overflow=hidden;rotatable=0;points=[[0,0.5],[1,0.5]];portConstraint=eastwest;" vertex="1" parent="Gb53zYRQu_qerPP-6HfW-56">
          <mxGeometry y="94" width="140" height="26" as="geometry" />
        </mxCell>
        <mxCell id="Gb53zYRQu_qerPP-6HfW-62" value="" style="line;strokeWidth=1;fillColor=none;align=left;verticalAlign=middle;spacingTop=-1;spacingLeft=3;spacingRight=3;rotatable=0;labelPosition=right;points=[];portConstraint=eastwest;strokeColor=inherit;fillStyle=auto;" vertex="1" parent="Gb53zYRQu_qerPP-6HfW-56">
          <mxGeometry y="120" width="140" height="8" as="geometry" />
        </mxCell>
        <mxCell id="Gb53zYRQu_qerPP-6HfW-63" value="2" style="text;strokeColor=none;fillColor=none;align=left;verticalAlign=top;spacingLeft=4;spacingRight=4;overflow=hidden;rotatable=0;points=[[0,0.5],[1,0.5]];portConstraint=eastwest;" vertex="1" parent="Gb53zYRQu_qerPP-6HfW-56">
          <mxGeometry y="128" width="140" height="26" as="geometry" />
        </mxCell>
        <mxCell id="Gb53zYRQu_qerPP-6HfW-64" value="" style="line;strokeWidth=1;fillColor=none;align=left;verticalAlign=middle;spacingTop=-1;spacingLeft=3;spacingRight=3;rotatable=0;labelPosition=right;points=[];portConstraint=eastwest;strokeColor=inherit;fillStyle=auto;" vertex="1" parent="Gb53zYRQu_qerPP-6HfW-56">
          <mxGeometry y="154" width="140" height="8" as="geometry" />
        </mxCell>
        <mxCell id="Gb53zYRQu_qerPP-6HfW-65" value="3" style="text;strokeColor=none;fillColor=none;align=left;verticalAlign=top;spacingLeft=4;spacingRight=4;overflow=hidden;rotatable=0;points=[[0,0.5],[1,0.5]];portConstraint=eastwest;" vertex="1" parent="Gb53zYRQu_qerPP-6HfW-56">
          <mxGeometry y="162" width="140" height="26" as="geometry" />
        </mxCell>
        <mxCell id="Gb53zYRQu_qerPP-6HfW-67" style="edgeStyle=orthogonalEdgeStyle;rounded=0;orthogonalLoop=1;jettySize=auto;html=1;entryX=0;entryY=0.5;entryDx=0;entryDy=0;" edge="1" parent="1" source="Gb53zYRQu_qerPP-6HfW-66" target="Gb53zYRQu_qerPP-6HfW-57">
          <mxGeometry relative="1" as="geometry" />
        </mxCell>
        <mxCell id="Gb53zYRQu_qerPP-6HfW-70" style="edgeStyle=orthogonalEdgeStyle;rounded=0;orthogonalLoop=1;jettySize=auto;html=1;entryX=0;entryY=0.321;entryDx=0;entryDy=0;entryPerimeter=0;" edge="1" parent="1" source="Gb53zYRQu_qerPP-6HfW-66" target="Gb53zYRQu_qerPP-6HfW-68">
          <mxGeometry relative="1" as="geometry">
            <Array as="points">
              <mxPoint x="-220" y="380" />
              <mxPoint x="-220" y="676" />
            </Array>
          </mxGeometry>
        </mxCell>
        <mxCell id="Gb53zYRQu_qerPP-6HfW-66" value="EXT_CLK_40M&lt;br&gt;PIN" style="shape=umlBoundary;whiteSpace=wrap;html=1;fillStyle=auto;fillColor=none;" vertex="1" parent="1">
          <mxGeometry x="-350" y="340" width="100" height="80" as="geometry" />
        </mxCell>
        <mxCell id="Gb53zYRQu_qerPP-6HfW-75" style="edgeStyle=orthogonalEdgeStyle;rounded=0;orthogonalLoop=1;jettySize=auto;html=1;exitX=1;exitY=0.5;exitDx=0;exitDy=0;entryX=0;entryY=0.5;entryDx=0;entryDy=0;" edge="1" parent="1" source="Gb53zYRQu_qerPP-6HfW-59" target="Gb53zYRQu_qerPP-6HfW-71">
          <mxGeometry relative="1" as="geometry" />
        </mxCell>
        <mxCell id="Gb53zYRQu_qerPP-6HfW-76" style="edgeStyle=orthogonalEdgeStyle;rounded=0;orthogonalLoop=1;jettySize=auto;html=1;exitX=1;exitY=0.5;exitDx=0;exitDy=0;entryX=0;entryY=0.5;entryDx=0;entryDy=0;" edge="1" parent="1" source="Gb53zYRQu_qerPP-6HfW-59" target="Gb53zYRQu_qerPP-6HfW-52">
          <mxGeometry relative="1" as="geometry" />
        </mxCell>
        <mxCell id="Gb53zYRQu_qerPP-6HfW-79" style="edgeStyle=orthogonalEdgeStyle;rounded=0;orthogonalLoop=1;jettySize=auto;html=1;exitX=1;exitY=0.5;exitDx=0;exitDy=0;" edge="1" parent="1" source="Gb53zYRQu_qerPP-6HfW-59" target="Gb53zYRQu_qerPP-6HfW-34">
          <mxGeometry relative="1" as="geometry">
            <Array as="points">
              <mxPoint x="490" y="413" />
              <mxPoint x="490" y="383" />
            </Array>
          </mxGeometry>
        </mxCell>
        <mxCell id="Gb53zYRQu_qerPP-6HfW-80" value="main_arbiter" style="swimlane;fontStyle=1;align=center;verticalAlign=top;childLayout=stackLayout;horizontal=1;startSize=26;horizontalStack=0;resizeParent=1;resizeParentMax=0;resizeLast=0;collapsible=1;marginBottom=0;fillStyle=auto;fillColor=#4D4D4D;" vertex="1" parent="1">
          <mxGeometry x="610" y="730" width="160" height="86" as="geometry">
            <mxRectangle x="590" y="430" width="160" height="30" as="alternateBounds" />
          </mxGeometry>
        </mxCell>
        <mxCell id="Gb53zYRQu_qerPP-6HfW-81" value="CLK: sysclk" style="text;strokeColor=none;fillColor=none;align=left;verticalAlign=top;spacingLeft=4;spacingRight=4;overflow=hidden;rotatable=0;points=[[0,0.5],[1,0.5]];portConstraint=eastwest;" vertex="1" parent="Gb53zYRQu_qerPP-6HfW-80">
          <mxGeometry y="26" width="160" height="26" as="geometry" />
        </mxCell>
        <mxCell id="Gb53zYRQu_qerPP-6HfW-82" value="" style="line;strokeWidth=1;fillColor=none;align=left;verticalAlign=middle;spacingTop=-1;spacingLeft=3;spacingRight=3;rotatable=0;labelPosition=right;points=[];portConstraint=eastwest;strokeColor=inherit;fillStyle=auto;" vertex="1" parent="Gb53zYRQu_qerPP-6HfW-80">
          <mxGeometry y="52" width="160" height="8" as="geometry" />
        </mxCell>
        <mxCell id="Gb53zYRQu_qerPP-6HfW-83" value="CLK: arinc_clk" style="text;strokeColor=none;fillColor=none;align=left;verticalAlign=top;spacingLeft=4;spacingRight=4;overflow=hidden;rotatable=0;points=[[0,0.5],[1,0.5]];portConstraint=eastwest;" vertex="1" parent="Gb53zYRQu_qerPP-6HfW-80">
          <mxGeometry y="60" width="160" height="26" as="geometry" />
        </mxCell>
        <mxCell id="Gb53zYRQu_qerPP-6HfW-84" style="edgeStyle=orthogonalEdgeStyle;rounded=0;orthogonalLoop=1;jettySize=auto;html=1;exitX=1;exitY=0.5;exitDx=0;exitDy=0;entryX=0;entryY=0.5;entryDx=0;entryDy=0;" edge="1" parent="1" source="Gb53zYRQu_qerPP-6HfW-59" target="Gb53zYRQu_qerPP-6HfW-81">
          <mxGeometry relative="1" as="geometry">
            <Array as="points">
              <mxPoint x="490" y="413" />
              <mxPoint x="490" y="769" />
            </Array>
          </mxGeometry>
        </mxCell>
        <mxCell id="Gb53zYRQu_qerPP-6HfW-86" style="edgeStyle=orthogonalEdgeStyle;rounded=0;orthogonalLoop=1;jettySize=auto;html=1;exitX=1;exitY=0.5;exitDx=0;exitDy=0;entryX=0;entryY=0.5;entryDx=0;entryDy=0;" edge="1" parent="1" source="Gb53zYRQu_qerPP-6HfW-72" target="Gb53zYRQu_qerPP-6HfW-53">
          <mxGeometry relative="1" as="geometry" />
        </mxCell>
        <mxCell id="Gb53zYRQu_qerPP-6HfW-87" value="MEmtop_1/2: memory_top" style="swimlane;fontStyle=1;align=center;verticalAlign=top;childLayout=stackLayout;horizontal=1;startSize=26;horizontalStack=0;resizeParent=1;resizeParentMax=0;resizeLast=0;collapsible=1;marginBottom=0;fillStyle=auto;fillColor=#4D4D4D;" vertex="1" parent="1">
          <mxGeometry x="240" y="830" width="160" height="86" as="geometry">
            <mxRectangle x="590" y="430" width="160" height="30" as="alternateBounds" />
          </mxGeometry>
        </mxCell>
        <mxCell id="Gb53zYRQu_qerPP-6HfW-88" value="RST: membus_reset_n" style="text;strokeColor=none;fillColor=none;align=left;verticalAlign=top;spacingLeft=4;spacingRight=4;overflow=hidden;rotatable=0;points=[[0,0.5],[1,0.5]];portConstraint=eastwest;" vertex="1" parent="Gb53zYRQu_qerPP-6HfW-87">
          <mxGeometry y="26" width="160" height="26" as="geometry" />
        </mxCell>
        <mxCell id="Gb53zYRQu_qerPP-6HfW-89" value="" style="line;strokeWidth=1;fillColor=none;align=left;verticalAlign=middle;spacingTop=-1;spacingLeft=3;spacingRight=3;rotatable=0;labelPosition=right;points=[];portConstraint=eastwest;strokeColor=inherit;fillStyle=auto;" vertex="1" parent="Gb53zYRQu_qerPP-6HfW-87">
          <mxGeometry y="52" width="160" height="8" as="geometry" />
        </mxCell>
        <mxCell id="Gb53zYRQu_qerPP-6HfW-90" value="CLK: arinc_clk" style="text;strokeColor=none;fillColor=none;align=left;verticalAlign=top;spacingLeft=4;spacingRight=4;overflow=hidden;rotatable=0;points=[[0,0.5],[1,0.5]];portConstraint=eastwest;" vertex="1" parent="Gb53zYRQu_qerPP-6HfW-87">
          <mxGeometry y="60" width="160" height="26" as="geometry" />
        </mxCell>
        <mxCell id="Gb53zYRQu_qerPP-6HfW-91" style="edgeStyle=orthogonalEdgeStyle;rounded=0;orthogonalLoop=1;jettySize=auto;html=1;exitX=1;exitY=0.5;exitDx=0;exitDy=0;entryX=0;entryY=0.5;entryDx=0;entryDy=0;" edge="1" parent="1" source="Gb53zYRQu_qerPP-6HfW-72" target="Gb53zYRQu_qerPP-6HfW-88">
          <mxGeometry relative="1" as="geometry" />
        </mxCell>
      </root>
    </mxGraphModel>
  </diagram>
</mxfile>
